PathFileType	4	(X/Y/Z)	results/motion.trc
DataRate	CameraRate	NumFrames	NumMarkers	Units	OrigDataRate	OrigDataStartFrame	OrigNumFrames
27	27	14	20	mm	27	308	614
Frame#	Time	NUI_SKELETON_POSITION_HIP_CENTER	NUI_SKELETON_POSITION_HIP_RIGHT	NUI_SKELETON_POSITION_HIP_LEFT	NUI_SKELETON_POSITION_KNEE_RIGHT	NUI_SKELETON_POSITION_KNEE_LEFT	NUI_SKELETON_POSITION_ANKLE_RIGHT	NUI_SKELETON_POSITION_ANKLE_LEFT	NUI_SKELETON_POSITION_FOOT_RIGHT	NUI_SKELETON_POSITION_FOOT_LEFT	NUI_SKELETON_POSITION_SPINE	NUI_SKELETON_POSITION_SHOULDER_RIGHT	NUI_SKELETON_POSITION_SHOULDER_LEFT	NUI_SKELETON_POSITION_ELBOW_RIGHT	NUI_SKELETON_POSITION_ELBOW_LEFT	NUI_SKELETON_POSITION_WRIST_RIGHT	NUI_SKELETON_POSITION_WRIST_LEFT	NUI_SKELETON_POSITION_HAND_RIGHT	NUI_SKELETON_POSITION_HAND_LEFT	NUI_SKELETON_POSITION_SHOULDER_CENTER	NUI_SKELETON_POSITION_HEAD
X1	Y1	Z1	X2	Y2	Z2	X3	Y3	Z3	X4	Y4	Z4	X5	Y5	Z5	X6	Y6	Z6	X7	Y7	Z7	X8	Y8	Z8	X9	Y9	Z9	X10	Y10	Z10	X11	Y11	Z11	X12	Y12	Z12	X13	Y13	Z13	X14	Y14	Z14	X15	Y15	Z15	X16	Y16	Z16	X17	Y17	Z17	X18	Y18	Z18	X19	Y19	Z19	X20	Y20	Z20	
308	10.900000	-85.082158	-87.442189	2888.424635	-0.465315	-169.620365	2886.689425	-168.149292	-167.981908	2875.531912	47.132328	-578.820705	2939.295769	-209.177405	-570.714891	2948.633432	73.330902	-924.520910	2974.088430	-236.103818	-897.346616	2990.255356	78.468993	-996.993124	2927.108526	-238.022104	-939.646959	2920.054436	-86.494498	-24.097988	2922.126055	104.509197	205.340162	2926.372051	-264.883608	203.085408	2916.949987	262.185454	18.312845	2950.920820	-439.876854	38.640175	2940.226793	455.364317	-15.427249	2917.199612	-619.521201	-2.224039	2845.418453	502.066076	-14.248081	2908.721447	-676.634133	-20.009426	2801.532507	-90.136275	300.192535	2908.393860	-81.043243	477.290034	2901.520491	
309	10.917000	-85.109249	-88.189997	2888.347864	-0.592314	-170.225605	2886.561155	-168.120295	-168.575779	2875.496864	47.137644	-578.819931	2939.289808	-209.178329	-570.744455	2948.631287	73.324047	-924.525857	2974.071741	-236.092970	-897.307038	2990.235567	78.463614	-997.014642	2927.132607	-237.947911	-939.467967	2919.830561	-86.472876	-24.744969	2922.218084	104.155958	204.437777	2926.156044	-264.624327	202.257171	2917.139053	259.897172	15.288465	2950.792074	-439.070493	36.260813	2940.485716	453.170359	-19.673849	2916.532278	-618.821502	-5.727045	2845.593929	500.333488	-18.654985	2907.534599	-675.293982	-23.957005	2801.980257	-90.113223	300.167382	2908.415079	-81.041194	477.291435	2901.522636	
310	10.936000	-85.135676	-88.918522	2888.273239	-0.716316	-170.813814	2886.433601	-168.091312	-169.156417	2875.465393	47.143016	-578.819275	2939.283371	-209.179416	-570.772707	2948.629141	73.313154	-924.566984	2974.089622	-236.083359	-897.239268	2990.205526	78.457005	-997.038007	2927.159548	-237.881750	-939.248323	2919.585466	-86.450592	-25.378343	2922.309875	103.804231	203.571290	2925.925493	-264.377385	201.460958	2917.317629	257.709354	12.507310	2950.625896	-438.338995	34.110144	2940.714359	451.090902	-23.476332	2915.900946	-618.186951	-8.892539	2845.750570	498.724610	-22.585936	2906.399012	-674.022734	-27.474085	2802.384853	-90.090275	300.141841	2908.437490	-81.039630	477.292746	2901.524305	
311	10.987000	-85.162379	-89.622006	2888.200760	-0.837296	-171.383232	2886.307716	-168.064028	-169.721380	2875.436306	47.148407	-578.818381	2939.276457	-209.180653	-570.801139	2948.627710	73.308013	-924.589932	2974.095821	-236.073017	-897.169888	2990.174770	78.449488	-997.061491	2927.186251	-237.818360	-939.031601	2919.345617	-86.429335	-25.993148	2922.400236	103.460111	202.734023	2925.692320	-264.144927	200.698197	2917.489052	255.731761	10.005159	2950.447321	-437.674880	32.157924	2940.916538	449.200720	-26.885731	2915.308475	-617.608666	-11.757245	2845.889568	497.225374	-26.072793	2905.310631	-672.813535	-30.584643	2802.749157	-90.068050	300.116956	2908.460617	-81.038423	477.293968	2901.525736	
312	11.005000	-85.190654	-90.301447	2888.130426	-0.957480	-171.934113	2886.184454	-168.038979	-170.270473	2875.408888	47.154635	-578.817427	2939.267397	-209.181994	-570.829570	2948.626757	73.304102	-924.611688	2974.101305	-236.064732	-897.116005	2990.152836	78.441992	-997.084439	2927.212477	-237.761468	-938.845456	2919.135571	-86.411238	-26.589960	2922.488689	103.125624	201.947883	2925.468922	-263.925165	199.964583	2917.650223	253.914893	7.739283	2950.271368	-437.073767	30.388499	2941.097498	447.436631	-29.921057	2914.723873	-617.077827	-14.347072	2846.012115	495.750636	-29.073084	2904.106379	-671.665847	-33.316504	2803.071737	-90.046771	300.092250	2908.483505	-81.037506	477.295071	2901.527405	
313	11.036000	-85.219167	-90.958767	2888.062954	-1.074536	-172.466487	2886.063814	-168.015063	-170.805424	2875.383139	47.161162	-578.816473	2939.257860	-209.183574	-570.858538	2948.626280	73.299170	-924.633205	2974.107742	-236.055359	-897.061825	2990.132570	78.433841	-997.107923	2927.239895	-237.705469	-938.664854	2918.936729	-86.394913	-27.170362	2922.576427	102.797292	201.192364	2925.245762	-263.717711	199.260503	2917.800426	252.445340	5.744589	2950.159311	-436.525315	28.781487	2941.258430	445.991904	-32.679122	2914.188147	-616.584420	-16.684003	2846.119404	494.368345	-31.675305	2902.936935	-670.562327	-35.674624	2803.385735	-90.026617	300.067782	2908.507347	-81.039101	477.296501	2901.527882	
314	11.068000	-85.247733	-91.591008	2887.997627	-1.188056	-172.979876	2885.945082	-167.992681	-171.324104	2875.359535	47.167815	-578.815460	2939.247847	-209.185034	-570.887446	2948.625803	73.294505	-924.654245	2974.114180	-236.049742	-897.020400	2990.114212	78.431606	-997.136950	2927.280664	-237.660483	-938.509524	2918.751001	-86.379968	-27.731715	2922.663212	102.479011	200.467587	2925.025463	-263.525635	198.584586	2917.945385	251.100808	3.932167	2950.045824	-436.027020	27.325064	2941.402435	444.661289	-35.127293	2913.666725	-616.126180	-18.783791	2846.215487	493.070066	-33.922341	2901.825905	-669.560492	-37.698630	2803.657293	-90.008438	300.043911	2908.531189	-81.042446	477.297932	2901.527405	
315	11.103000	-85.276939	-92.200227	2887.934446	-1.298909	-173.476398	2885.828972	-167.972550	-171.827808	2875.337839	47.174752	-578.814685	2939.236879	-209.186733	-570.916533	2948.625803	73.288970	-924.674749	2974.120140	-236.044496	-896.986663	2990.094662	78.429565	-997.166455	2927.322865	-237.619177	-938.374758	2918.565989	-86.366788	-28.275575	2922.748327	102.169342	199.770302	2924.808502	-263.346910	197.934344	2918.085814	249.897256	2.304251	2949.937344	-435.575843	26.004165	2941.534281	443.484336	-37.283946	2913.144350	-615.699172	-20.661872	2846.299410	491.866171	-35.819747	2900.752068	-668.605864	-39.391324	2803.914785	-89.991204	300.020158	2908.555031	-81.048876	477.299660	2901.525974	
316	11.154000	-85.306801	-92.786603	2887.873411	-1.407122	-173.955083	2885.715723	-167.954043	-172.315419	2875.318766	47.181528	-578.813851	2939.225435	-209.188193	-570.945919	2948.626041	73.284253	-924.688876	2974.121094	-236.038491	-896.950424	2990.072250	78.429803	-997.197688	2927.367210	-237.577409	-938.236594	2918.378592	-86.356081	-28.801918	2922.832012	101.866975	199.100450	2924.593210	-263.179988	197.319776	2918.215275	248.769879	0.834400	2949.820757	-435.166955	24.806492	2941.653728	442.340434	-39.136175	2912.611723	-615.299046	-22.325084	2846.370220	490.760565	-37.400365	2899.695873	-667.769969	-40.777836	2804.160118	-89.975394	299.996436	2908.578634	-81.059039	477.300644	2901.521444	
317	11.169000	-85.337564	-93.351282	2887.814760	-1.513314	-174.416721	2885.604858	-167.937234	-172.788128	2875.302076	47.188085	-578.812420	2939.213514	-209.189758	-570.975006	2948.626995	73.279336	-924.695492	2974.117041	-236.032650	-896.917582	2990.053415	78.428999	-997.228324	2927.410603	-237.538457	-938.108802	2918.207645	-86.347438	-29.310852	2922.913790	101.569161	198.459446	2924.376726	-263.024658	196.735948	2918.336868	247.723952	-0.487240	2949.702024	-434.795082	23.719024	2941.761255	441.256046	-40.701751	2912.087679	-614.928365	-23.787443	2846.437454	489.732951	-38.665436	2898.684978	-666.940272	-41.813556	2804.450750	-89.961194	299.973160	2908.601046	-81.072278	477.301002	2901.515007	
318	11.201000	-85.368447	-93.893506	2887.758255	-1.616676	-174.861521	2885.496378	-167.922169	-173.245266	2875.287533	47.194656	-578.811049	2939.201355	-209.191382	-571.003795	2948.627710	73.274627	-924.701571	2974.113703	-236.026242	-896.883905	2990.033627	78.428037	-997.252285	2927.438736	-237.500548	-937.983036	2918.039322	-86.340144	-29.802043	2922.993422	101.280943	197.849736	2924.165487	-262.880832	196.176544	2918.453932	246.757090	-1.669575	2949.579239	-434.458762	22.732491	2941.859961	440.233231	-41.994423	2911.552668	-614.588380	-25.057551	2846.503973	488.781929	-39.626092	2897.662401	-666.157186	-42.567547	2804.792404	-89.947902	299.949765	2908.623219	-81.089839	477.301419	2901.507854	
319	11.237000	-85.399322	-94.414510	2887.704134	-1.717243	-175.290003	2885.391235	-167.908311	-173.686713	2875.274897	47.201425	-578.809321	2939.188004	-209.194720	-571.040034	2948.629379	73.270783	-924.709499	2974.114418	-236.037776	-896.983683	2990.099669	78.426637	-997.279644	2927.477598	-237.480387	-937.972128	2917.944193	-86.334407	-30.276032	2923.071384	101.000838	197.267100	2923.958540	-262.746990	195.648164	2918.562412	245.865092	-2.720248	2949.453115	-434.154421	21.836691	2941.949368	439.277351	-43.041304	2911.027431	-614.278793	-26.146397	2846.564054	487.910181	-40.329367	2896.679878	-665.533483	-43.071948	2805.110931	-89.935467	299.926639	2908.645153	-81.114732	477.300167	2901.495457	
320	11.287000	-85.430130	-94.914980	2887.652159	-1.814950	-175.703049	2885.289192	-167.895824	-174.113825	2875.263929	47.207799	-578.807771	2939.174891	-209.199399	-571.077943	2948.630571	73.267266	-924.716711	2974.114656	-236.040771	-896.987438	2990.101099	78.424856	-997.308016	2927.518845	-237.459704	-937.904954	2917.827368	-86.329609	-30.733142	2923.147440	100.728206	196.709439	2923.756838	-262.625158	195.147768	2918.667793	245.042086	-3.653387	2949.324131	-433.877677	21.023730	2942.029238	438.382298	-43.842524	2910.504341	-613.996446	-27.059397	2846.627235	487.074614	-40.740300	2895.685911	-665.027380	-43.312289	2805.438280	-89.923799	299.903810	2908.666372	-81.152476	477.295280	2901.472807	
321	11.305000	-85.461967	-95.398836	2887.602091	-1.912291	-176.105782	2885.189056	-167.885885	-174.527809	2875.254869	47.214162	-578.806221	2939.161539	-209.206045	-571.114302	2948.630810	73.263526	-924.726069	2974.121332	-236.042961	-896.990895	2990.102291	78.422531	-997.337818	2927.567244	-237.440184	-937.843978	2917.718410	-86.327009	-31.176597	2923.221111	100.463957	196.175218	2923.561811	-262.511671	194.674790	2918.764830	244.286343	-4.475038	2949.192762	-433.626652	20.286987	2942.099810	437.553316	-44.419739	2909.986019	-613.738656	-27.817119	2846.684217	486.327142	-40.838685	2894.639492	-664.615393	-43.234747	2805.696964	-89.912057	299.880356	2908.687592	-81.207015	477.284789	2901.439667	
